<?xml version="1.0" encoding="us-ascii" standalone="no"?><svg xmlns="http://www.w3.org/2000/svg" xmlns:xlink="http://www.w3.org/1999/xlink" contentStyleType="text/css" height="240px" preserveAspectRatio="none" style="width:679px;height:240px;background:#FFFFFF;" version="1.1" viewBox="0 0 679 240" width="679px" zoomAndPan="magnify"><defs/><g><!--cluster api_rest--><g id="cluster_api_rest"><polygon fill="none" points="197,56.54,207,46.54,662,46.54,662,145.54,652,155.54,197,155.54,197,56.54" style="stroke:#181818;stroke-width:1.0;"/><line style="stroke:#181818;stroke-width:1.0;" x1="652" x2="662" y1="56.54" y2="46.54"/><line style="stroke:#181818;stroke-width:1.0;" x1="197" x2="652" y1="56.54" y2="56.54"/><line style="stroke:#181818;stroke-width:1.0;" x1="652" x2="652" y1="56.54" y2="155.54"/><text fill="#000000" font-family="sans-serif" font-size="14" font-weight="bold" lengthAdjust="spacing" textLength="59" x="396" y="74.5059">API REST</text></g><!--entity serveur--><g id="elem_serveur"><rect fill="#F1F1F1" height="49.0679" rx="2.5" ry="2.5" style="stroke:#181818;stroke-width:0.5;" width="92" x="213" y="90"/><rect fill="#F1F1F1" height="10" style="stroke:#181818;stroke-width:0.5;" width="15" x="285" y="95"/><rect fill="#F1F1F1" height="2" style="stroke:#181818;stroke-width:0.5;" width="4" x="283" y="97"/><rect fill="#F1F1F1" height="2" style="stroke:#181818;stroke-width:0.5;" width="4" x="283" y="101"/><text fill="#000000" font-family="sans-serif" font-size="14" lengthAdjust="spacing" textLength="52" x="228" y="124.9659">Serveur</text></g><!--entity php--><g id="elem_php"><rect fill="#F1F1F1" height="49.0679" rx="2.5" ry="2.5" style="stroke:#181818;stroke-width:0.5;" width="66" x="365" y="90"/><rect fill="#F1F1F1" height="10" style="stroke:#181818;stroke-width:0.5;" width="15" x="411" y="95"/><rect fill="#F1F1F1" height="2" style="stroke:#181818;stroke-width:0.5;" width="4" x="409" y="97"/><rect fill="#F1F1F1" height="2" style="stroke:#181818;stroke-width:0.5;" width="4" x="409" y="101"/><text fill="#000000" font-family="sans-serif" font-size="14" lengthAdjust="spacing" textLength="26" x="380" y="124.9659">PHP</text></g><!--entity base_de_donnees--><g id="elem_base_de_donnees"><rect fill="#F1F1F1" height="49.0679" rx="2.5" ry="2.5" style="stroke:#181818;stroke-width:0.5;" width="155" x="491" y="90"/><rect fill="#F1F1F1" height="10" style="stroke:#181818;stroke-width:0.5;" width="15" x="626" y="95"/><rect fill="#F1F1F1" height="2" style="stroke:#181818;stroke-width:0.5;" width="4" x="624" y="97"/><rect fill="#F1F1F1" height="2" style="stroke:#181818;stroke-width:0.5;" width="4" x="624" y="101"/><text fill="#000000" font-family="sans-serif" font-size="14" lengthAdjust="spacing" textLength="115" x="506" y="124.9659">Base de donn&#233;es</text></g><!--entity client_mobile--><g id="elem_client_mobile"><polygon fill="#F1F1F1" points="20,16,30,6,149,6,149,45.0679,139,55.0679,20,55.0679,20,16" style="stroke:#181818;stroke-width:0.5;"/><line style="stroke:#181818;stroke-width:0.5;" x1="139" x2="149" y1="16" y2="6"/><line style="stroke:#181818;stroke-width:0.5;" x1="20" x2="139" y1="16" y2="16"/><line style="stroke:#181818;stroke-width:0.5;" x1="139" x2="139" y1="16" y2="55.0679"/><text fill="#000000" font-family="sans-serif" font-size="14" lengthAdjust="spacing" textLength="89" x="35" y="40.9659">Client Mobile</text></g><!--entity client_web--><g id="elem_client_web"><polygon fill="#F1F1F1" points="28,100,38,90,141,90,141,129.0679,131,139.0679,28,139.0679,28,100" style="stroke:#181818;stroke-width:0.5;"/><line style="stroke:#181818;stroke-width:0.5;" x1="131" x2="141" y1="100" y2="90"/><line style="stroke:#181818;stroke-width:0.5;" x1="28" x2="131" y1="100" y2="100"/><line style="stroke:#181818;stroke-width:0.5;" x1="131" x2="131" y1="100" y2="139.0679"/><text fill="#000000" font-family="sans-serif" font-size="14" lengthAdjust="spacing" textLength="73" x="43" y="124.9659">Client Web</text></g><!--entity client_desktop--><g id="elem_client_desktop"><polygon fill="#F1F1F1" points="16,184,26,174,153,174,153,213.0679,143,223.0679,16,223.0679,16,184" style="stroke:#181818;stroke-width:0.5;"/><line style="stroke:#181818;stroke-width:0.5;" x1="143" x2="153" y1="184" y2="174"/><line style="stroke:#181818;stroke-width:0.5;" x1="16" x2="143" y1="184" y2="184"/><line style="stroke:#181818;stroke-width:0.5;" x1="143" x2="143" y1="184" y2="223.0679"/><text fill="#000000" font-family="sans-serif" font-size="14" lengthAdjust="spacing" textLength="97" x="31" y="208.9659">Client Desktop</text></g><!--link serveur to php--><g id="link_serveur_php"><path d="M311.24,114.54 C330.72,114.54 341.06,114.54 358.81,114.54 " fill="none" id="serveur-php" style="stroke:#181818;stroke-width:1.0;"/><polygon fill="#181818" points="305.24,114.54,314.24,118.54,310.24,114.54,314.24,110.54,305.24,114.54" style="stroke:#181818;stroke-width:1.0;"/><polygon fill="#181818" points="364.81,114.54,355.81,110.54,359.81,114.54,355.81,118.54,364.81,114.54" style="stroke:#181818;stroke-width:1.0;"/></g><!--link php to base_de_donnees--><g id="link_php_base_de_donnees"><path d="M437.49,114.54 C454.42,114.54 463.89,114.54 484.75,114.54 " fill="none" id="php-base_de_donnees" style="stroke:#181818;stroke-width:1.0;"/><polygon fill="#181818" points="431.49,114.54,440.49,118.54,436.49,114.54,440.49,110.54,431.49,114.54" style="stroke:#181818;stroke-width:1.0;"/><polygon fill="#181818" points="490.75,114.54,481.75,110.54,485.75,114.54,481.75,118.54,490.75,114.54" style="stroke:#181818;stroke-width:1.0;"/></g><!--link client_mobile to serveur--><g id="link_client_mobile_serveur"><path d="M142.1844,58.1368 C166.3144,69.8868 184.0551,78.5342 207.3751,89.8842 " fill="none" id="client_mobile-serveur" style="stroke:#181818;stroke-width:1.0;"/><polygon fill="#181818" points="136.79,55.51,143.1305,63.0465,141.2854,57.699,146.6329,55.8539,136.79,55.51" style="stroke:#181818;stroke-width:1.0;"/><polygon fill="#181818" points="212.77,92.51,206.4281,84.9747,208.2742,90.3219,202.9271,92.168,212.77,92.51" style="stroke:#181818;stroke-width:1.0;"/></g><!--link client_desktop to serveur--><g id="link_client_desktop_serveur"><path d="M142.1844,170.9332 C166.3144,159.1832 184.056,150.5476 207.376,139.1876 " fill="none" id="client_desktop-serveur" style="stroke:#181818;stroke-width:1.0;"/><polygon fill="#181818" points="136.79,173.56,146.6329,173.2161,141.2854,171.371,143.1305,166.0235,136.79,173.56" style="stroke:#181818;stroke-width:1.0;"/><polygon fill="#181818" points="212.77,136.56,202.9272,136.9054,208.275,138.7497,206.4307,144.0975,212.77,136.56" style="stroke:#181818;stroke-width:1.0;"/></g><!--link client_web to serveur--><g id="link_client_web_serveur"><path d="M147.03,114.54 C170.17,114.54 184.72,114.54 206.66,114.54 " fill="none" id="client_web-serveur" style="stroke:#181818;stroke-width:1.0;"/><polygon fill="#181818" points="141.03,114.54,150.03,118.54,146.03,114.54,150.03,110.54,141.03,114.54" style="stroke:#181818;stroke-width:1.0;"/><polygon fill="#181818" points="212.66,114.54,203.66,110.54,207.66,114.54,203.66,118.54,212.66,114.54" style="stroke:#181818;stroke-width:1.0;"/></g><!--SRC=[RP3DIiKm48NtUOgX6rUrUn71Fz25KBo2ov8susqmoOHahYBY0_aSlfXZUfMROWWaVEUScKcEPkQOJxekEXruvztnHBup61szUGpS6gktINkb0Xc4vho_XVlhpKC3EeEETaYO6TuLo99af20XQ3QONd2NYYilzxMbl-cB7EUubYvqHf1kXaBu-iHSVAF0mSWMY9XL2UrhmsdRdlrLadC1wyY7KWwV69WWsUtCO6p2YIs5_UikdVqPu8v6wx1qdGePV26rwn77GyihZhL-XVcPAHvwp8AKgiekm_v-KstzLvDMDVy6]--></g></svg>